<svg width="339" height="249" viewBox="0 0 339 249" fill="none" xmlns="http://www.w3.org/2000/svg">
<path d="M237.295 237.682C237.295 240.684 236.105 243.562 233.985 245.685C231.866 247.808 228.991 249 225.994 249H22.5769C19.5797 249 16.7053 247.808 14.5859 245.685C12.4666 243.562 11.2759 240.684 11.2759 237.682C11.2759 234.68 12.4666 231.801 14.5859 229.679C16.7053 227.556 19.5797 226.364 22.5769 226.364H225.994C228.991 226.364 231.866 227.556 233.985 229.679C236.105 231.801 237.295 234.68 237.295 237.682ZM338.806 63.879C338.51 65.4543 337.884 66.9486 336.968 68.2632C336.053 69.5778 334.869 70.6826 333.495 71.5045L125.26 196.003C116.58 201.1 106.703 203.795 96.6406 203.813C82.3069 203.796 68.5213 198.295 58.1043 188.434L57.9348 188.264L7.03809 138.366C4.3452 135.805 2.32391 132.619 1.15296 129.089C-0.0179872 125.56 -0.302521 121.796 0.324523 118.13C0.951567 114.464 2.47087 111.009 4.74808 108.071C7.02529 105.133 9.99024 102.803 13.3808 101.285L17.6186 99.2055C20.2949 97.8896 23.382 97.6862 26.2073 98.6396L66.128 112.136L94.6205 94.8763L63.783 64.8976C61.0098 62.3388 58.9198 59.1257 57.7036 55.551C56.4873 51.9764 56.1834 48.1538 56.8194 44.4314C57.4555 40.709 59.0114 37.2051 61.3453 34.239C63.6793 31.2728 66.7172 28.9386 70.1822 27.449L70.6342 27.2651L80.7345 23.4311C83.281 22.4801 86.0845 22.4801 88.631 23.4311L164.828 51.4716L237.677 7.92534C249.286 1.00559 262.994 -1.49863 276.295 0.870473C289.595 3.23958 301.601 10.3238 310.116 20.8279L310.285 21.0401L336.617 54.8387C337.6 56.1042 338.304 57.5646 338.682 59.1231C339.059 60.6817 339.101 62.3028 338.806 63.879ZM310.921 58.6444L292.557 35.0604C287.446 28.7982 280.261 24.5803 272.308 23.1732C264.355 21.7661 256.162 23.2632 249.218 27.3924L171.806 73.6833C170.356 74.5442 168.734 75.072 167.055 75.2286C165.377 75.3852 163.685 75.1666 162.101 74.5887L84.7322 46.0955L79.0817 48.2601L79.3784 48.543L120.853 88.8495C122.092 90.0548 123.038 91.5285 123.619 93.1572C124.2 94.7859 124.401 96.5264 124.206 98.245C124.011 99.9636 123.425 101.615 122.494 103.071C121.562 104.528 120.31 105.751 118.833 106.647L73.3324 134.221C71.9248 135.072 70.3487 135.606 68.714 135.784C67.0793 135.962 65.4254 135.781 63.8678 135.254L23.368 121.573L23.0996 121.714L22.5769 121.955C22.645 122.003 22.7068 122.06 22.7606 122.125L73.6149 172.009C78.9221 177.004 85.7025 180.142 92.9403 180.953C100.178 181.764 107.483 180.204 113.762 176.508L310.921 58.6444Z" fill="#D0E3CC"/>
</svg>
