<svg width="144" height="160" viewBox="0 0 144 160" fill="none" xmlns="http://www.w3.org/2000/svg">
<path d="M80 0C80 4.41828 76.4183 8 72 8C67.5817 8 64 4.41828 64 0H55C55 4.41828 51.4183 8 47 8C42.5817 8 39 4.41828 39 0H30C30 4.41828 26.4183 8 22 8C17.5817 8 14 4.41828 14 0H0V16C4.41828 16 8 19.5817 8 24C8 28.4183 4.41828 32 0 32V38C4.41828 38 8 41.5817 8 46C8 50.4183 4.41828 54 0 54V60C4.41828 60 8 63.5817 8 68C8 72.4183 4.41828 76 0 76V82C4.41828 82 8 85.5817 8 90C8 94.4183 4.41828 98 0 98V104C4.41828 104 8 107.582 8 112C8 116.418 4.41828 120 0 120V126C4.41828 126 8 129.582 8 134C8 138.418 4.41828 142 0 142V160H14C14 155.582 17.5817 152 22 152C26.4183 152 30 155.582 30 160H39C39 155.582 42.5817 152 47 152C51.4183 152 55 155.582 55 160H64C64 155.582 67.5817 152 72 152C76.4183 152 80 155.582 80 160H89C89 155.582 92.5817 152 97 152C101.418 152 105 155.582 105 160H114C114 155.582 117.582 152 122 152C126.418 152 130 155.582 130 160H144V142C139.582 142 136 138.418 136 134C136 129.582 139.582 126 144 126V120C139.582 120 136 116.418 136 112C136 107.582 139.582 104 144 104V98C139.582 98 136 94.4183 136 90C136 85.5817 139.582 82 144 82V76C139.582 76 136 72.4183 136 68C136 63.5817 139.582 60 144 60V54C139.582 54 136 50.4183 136 46C136 41.5817 139.582 38 144 38V32C139.582 32 136 28.4183 136 24C136 19.5817 139.582 16 144 16V0H130C130 4.41828 126.418 8 122 8C117.582 8 114 4.41828 114 0H105C105 4.41828 101.418 8 97 8C92.5817 8 89 4.41828 89 0H80Z" fill="#d48a2e"/>
</svg>
